<?xml version="1.0" encoding="utf-8"?>
<!-- Generator: Adobe Illustrator 15.0.0, SVG Export Plug-In . SVG Version: 6.00 Build 0)  -->
<!DOCTYPE svg PUBLIC "-//W3C//DTD SVG 1.1//EN" "http://www.w3.org/Graphics/SVG/1.1/DTD/svg11.dtd">
<svg version="1.1" xmlns="http://www.w3.org/2000/svg" xmlns:xlink="http://www.w3.org/1999/xlink" x="0px" y="0px"
	 width="30.417px" height="48.583px" viewBox="0 0 30.417 48.583" enable-background="new 0 0 30.417 48.583" xml:space="preserve">
<g id="Calque_1">
</g>
<g id="Forme">
	<path fill="#FF0000" d="M14.938,0.583c-8.008,0-14.5,6.492-14.5,14.5c0,2.033,0.418,3.969,1.174,5.725l13.256,26.275l13.319-26.101
		c0.804-1.802,1.251-3.799,1.251-5.899C29.438,7.075,22.946,0.583,14.938,0.583z M14.937,20.749c-3.197,0-5.791-2.593-5.791-5.791
		c0-3.199,2.594-5.792,5.791-5.792c3.199,0,5.792,2.593,5.792,5.792C20.729,18.156,18.136,20.749,14.937,20.749z"/>
</g>
<g id="Picto_Arrêt">
</g>
</svg>
