<?xml version="1.0" encoding="UTF-8" standalone="no"?>
<svg xmlns:svg="http://www.w3.org/2000/svg" xmlns="http://www.w3.org/2000/svg" version="1.1" color="#000" viewBox="0 0 61 59">
	<path fill-rule="nonzero" fill="#fff" d="M 44.10,14.11 C 49.45,17.84 57.16,15.78 59.98,20.28 64.44,27.39 54.13,33.37 51.64,38.83 48.79,45.07 57.50,60.60 44.00,58.79 42.50,58.58 41.39,58.21 40.00,57.65 37.42,56.62 34.76,54.87 32.00,54.43 25.43,53.38 18.69,61.27 12.23,58.40 6.14,55.70 10.97,45.42 9.93,40.72 8.50,34.25 0.89,31.44 0.16,25.00 -1.01,14.55 11.45,18.81 17.79,13.43 22.21,9.69 21.52,5.41 27.10,1.02 38.25,-2.72 37.34,9.39 44.10,14.11 Z M 20.00,21.99 C 16.97,23.81 13.37,24.15 10.00,25.00 17.58,35.94 19.51,36.00 17.00,50.00 17.00,50.00 32.00,46.11 32.00,46.11 32.00,46.11 44.00,50.00 44.00,50.00 41.49,36.00 43.42,35.94 51.00,25.00 39.25,22.03 36.19,20.96 31.00,9.00 27.01,14.01 26.13,18.31 20.00,21.99 Z" id="path4" style="fill:#000000" />
	<path style="fill:#fff;fill-opacity:1" d="m 17.196696,49.090669 c 0.197584,-1.154939 0.580995,-3.771088 0.704591,-4.80768 0.06219,-0.521556 0.100937,-1.705208 0.09929,-3.032807 -0.003,-2.443956 -0.08864,-3.089068 -0.624027,-4.702581 -0.633899,-1.910415 -1.502383,-3.35425 -4.884192,-8.119857 -1.271361,-1.791588 -2.318698,-3.292042 -2.327415,-3.334342 -0.0087,-0.0423 1.19144,-0.348039 2.667017,-0.679417 3.009448,-0.67585 4.041194,-0.957142 5.171325,-1.409892 2.830115,-1.133793 5.607219,-3.320536 7.622607,-6.002185 0.315579,-0.419904 0.93421,-1.321493 1.374735,-2.00353 2.463935,-3.814748 3.922021,-5.9603735 3.99727,-5.8821228 0.0091,0.0095 0.232933,0.5071956 0.49732,1.1059808 0.6787,1.537126 1.872059,3.866575 2.568115,5.012988 1.047324,1.724955 1.894788,2.820525 3.044578,3.935921 2.512526,2.437366 5.12352,3.60467 12.07885,5.400122 0.855407,0.220816 1.584693,0.42945 1.620637,0.46363 0.03594,0.03418 -0.911639,1.439496 -2.105736,3.122921 -3.751702,5.289103 -4.433378,6.421299 -5.110254,8.487618 -0.491401,1.500115 -0.621785,2.469983 -0.619039,4.604746 0.0029,2.276735 0.210892,4.266284 0.808303,7.732908 0.08432,0.489308 0.143388,0.899578 0.131255,0.911711 -0.01213,0.01213 -2.662095,-0.834039 -5.888802,-1.880384 -3.226707,-1.046345 -5.943008,-1.902788 -6.036223,-1.903207 -0.09322,-3.89e-4 -3.400141,0.837147 -7.348724,1.861255 -3.948584,1.024108 -7.270644,1.88404 -7.382358,1.91096 l -0.203115,0.04894 0.143996,-0.841701 0,0 z"/>
</svg>