<svg xmlns="http://www.w3.org/2000/svg" class="logoLgn" height="100%" width="100%" version="1.1" viewBox="0 0 64 64" ><circle id="circle3" r="92.5" cy="-1954.67" cx="1202.111" fill="#1E2882" /><path id="path5" d="M1215.908-2013.677h-45.895v118.014h26.226v-39.338h19.669c21.699,0,39.338-17.636,39.338-39.338 S1237.607-2013.677,1215.908-2013.677z M1217.221-1961.226h-20.981v-26.226h20.981c7.209,0,13.113,5.9,13.113,13.113  S1224.43-1961.226,1217.221-1961.226z" fill="#FFFFFF" /><circle id="circle7" r="92.5" cy="-1954.67" cx="1202.111" fill="#1E2882" /><path id="path9" d="M1215.908-2013.677h-45.895v118.014h26.226v-39.338h19.669c21.699,0,39.338-17.636,39.338-39.338  S1237.607-2013.677,1215.908-2013.677z M1217.221-1961.226h-20.981v-26.226h20.981c7.209,0,13.113,5.9,13.113,13.113  S1224.43-1961.226,1217.221-1961.226z" fill="#FFFFFF" /><ellipse style="fill:#1e2882" ry="32.161018" rx="31.889832" id="circle11" cy="32.330006" cx="31.805916" /><path style="fill:#ffffff" id="path13" d="m 37.46508,7.9331695 -21.65447,0 0,49.4038255 12.374387,0 0,-16.467941 9.280554,0 c 10.238384,0 18.561109,-7.382902 18.561109,-16.467942 0,-9.08504 -8.323197,-16.4679425 -18.56158,-16.4679425 z m 0.619521,21.9569775 -9.900075,0 0,-10.97807 9.899604,0 c 3.40147,0 6.187193,2.469898 6.187193,5.489035 0,3.019136 -2.785251,5.489035 -6.186722,5.489035 z" /></svg>