<?xml version="1.0" encoding="UTF-8" standalone="no"?>
<svg
   xmlns:dc="http://purl.org/dc/elements/1.1/"
   xmlns:cc="http://creativecommons.org/ns#"
   xmlns:rdf="http://www.w3.org/1999/02/22-rdf-syntax-ns#"
   xmlns:svg="http://www.w3.org/2000/svg"
   xmlns="http://www.w3.org/2000/svg"
   xmlns:sodipodi="http://sodipodi.sourceforge.net/DTD/sodipodi-0.dtd"
   xmlns:inkscape="http://www.inkscape.org/namespaces/inkscape"
   xml:space="preserve"
   version="1.1"
   viewBox="0 0 72 64"
   height="100%"
   width="100%"
   id="svg2"
   inkscape:version="0.48.4 r"
   sodipodi:docname="pieton_blanc.svg"><metadata
     id="metadata18"><rdf:RDF><cc:Work
         rdf:about=""><dc:format>image/svg+xml</dc:format><dc:type
           rdf:resource="http://purl.org/dc/dcmitype/StillImage" /></cc:Work></rdf:RDF></metadata><defs
     id="defs16" /><sodipodi:namedview
     pagecolor="#fff"
     bordercolor="#666666"
     borderopacity="1"
     objecttolerance="10"
     gridtolerance="10"
     guidetolerance="10"
     inkscape:pageopacity="0"
     inkscape:pageshadow="2"
     inkscape:window-width="640"
     inkscape:window-height="480"
     id="namedview14"
     showgrid="false"
     inkscape:zoom="4.5702696"
     inkscape:cx="36"
     inkscape:cy="32"
     inkscape:window-x="2449"
     inkscape:window-y="129"
     inkscape:window-maximized="0"
     inkscape:current-layer="svg2" /><g
     transform="matrix(1.5049772,0,0,-1.6388349,22.249497,63.005198)"
     id="g4"><g
       transform="translate(12.2754,31.4619)"
       id="g6"><path
         d="M 0,0 C 1.721,-0.128 3.229,1.154 3.352,2.871 3.493,4.596 2.209,6.09 0.49,6.23 -1.228,6.369 -2.726,5.08 -2.871,3.36 -3.009,1.644 -1.722,0.139 0,0"
         id="path8"
         inkscape:connector-curvature="0"
         style="fill:#000;fill-rule:nonzero" /></g><g
       transform="translate(9.626,30.1797)"
       id="g10"><path
         d="m 0,0 c 0.623,0.434 1.369,0.721 2.188,0.659 1.079,-0.098 1.967,-0.747 2.489,-1.57 l 3.156,-6.246 4.301,-2.956 c 0.363,-0.279 0.588,-0.748 0.547,-1.234 -0.062,-0.776 -0.743,-1.354 -1.516,-1.292 -0.236,0.021 -0.418,0.098 -0.644,0.206 L 5.833,-9.197 C 5.688,-9.09 5.563,-8.94 5.481,-8.79 l -1.184,2.339 -1.41,-6.23 5.542,-6.542 c 0.116,-0.206 0.207,-0.433 0.253,-0.665 l 1.499,-7.914 c -0.011,-0.176 0.018,-0.278 0.006,-0.427 -0.088,-1.169 -1.109,-2.037 -2.277,-1.944 -0.955,0.073 -1.679,0.8 -1.908,1.67 l -1.411,7.404 -4.498,4.935 -1.046,-4.802 c -0.034,-0.224 -0.329,-0.699 -0.427,-0.896 l -4.314,-7.281 c -0.432,-0.669 -1.153,-1.091 -1.978,-1.03 -1.164,0.093 -2.04,1.114 -1.947,2.278 0.025,0.33 0.17,0.67 0.29,0.902 l 4.018,6.749 3.333,14.84 -2.18,-1.768 -1.153,-5.292 c -0.155,-0.674 -0.773,-1.231 -1.502,-1.164 -0.782,0.064 -1.365,0.726 -1.302,1.51 0.01,0.066 0.018,0.129 0.03,0.191 L -6.7,-5.76 c 0.069,0.267 0.228,0.505 0.431,0.685 L 0,0 z"
         id="path12"
         inkscape:connector-curvature="0"
         style="fill:#000;fill-rule:nonzero" /></g></g></svg>