<svg xmlns="http://www.w3.org/2000/svg" xml:space="preserve" version="1.1" xmlns:cc="http://creativecommons.org/ns#" xmlns:dc="http://purl.org/dc/elements/1.1/" viewBox="0 0 27.889 47.128" height="100%" width="100%" ><g transform="matrix(1.25,0,0,-1.25,0,47.12825)"><g transform="translate(12.2754,31.4619)"><path fill-rule="nonzero" fill="#878a8b" d="M0,0c1.721-0.128,3.229,1.154,3.352,2.871,0.141,1.725-1.143,3.219-2.862,3.359-1.718,0.139-3.216-1.15-3.361-2.87-0.138-1.716,1.149-3.221,2.871-3.36"/></g><g transform="translate(9.626,30.1797)"><path fill-rule="nonzero" fill="#878a8b" d="m0,0c0.623,0.434,1.369,0.721,2.188,0.659,1.079-0.098,1.967-0.747,2.489-1.57l3.156-6.246,4.301-2.956c0.363-0.279,0.588-0.748,0.547-1.234-0.062-0.776-0.743-1.354-1.516-1.292-0.236,0.021-0.418,0.098-0.644,0.206l-4.688,3.236c-0.145,0.107-0.27,0.257-0.352,0.407l-1.184,2.339-1.41-6.23,5.542-6.542c0.116-0.206,0.207-0.433,0.253-0.665l1.499-7.914c-0.011-0.176,0.018-0.278,0.006-0.427-0.088-1.169-1.109-2.037-2.277-1.944-0.955,0.073-1.679,0.8-1.908,1.67l-1.411,7.404-4.498,4.935-1.046-4.802c-0.034-0.224-0.329-0.699-0.427-0.896l-4.314-7.281c-0.432-0.669-1.153-1.091-1.978-1.03-1.164,0.093-2.04,1.114-1.947,2.278,0.025,0.33,0.17,0.67,0.29,0.902l4.018,6.749,3.333,14.84-2.18-1.768-1.153-5.292c-0.155-0.674-0.773-1.231-1.502-1.164-0.782,0.064-1.365,0.726-1.302,1.51,0.01,0.066,0.018,0.129,0.03,0.191l1.385,6.167c0.069,0.267,0.228,0.505,0.431,0.685l6.269,5.075z"/></g></g></svg>