<svg xmlns:rdf="http://www.w3.org/1999/02/22-rdf-syntax-ns#" xmlns="http://www.w3.org/2000/svg" xml:space="preserve" height="576" width="576" version="1.1" xmlns:cc="http://creativecommons.org/ns#" xmlns:dc="http://purl.org/dc/elements/1.1/" viewBox="-0.531 -0.531 576 576"><metadata><rdf:RDF><cc:Work rdf:about=""><dc:format>image/svg+xml</dc:format><dc:type rdf:resource="http://purl.org/dc/dcmitype/StillImage"/><dc:title/></cc:Work></rdf:RDF></metadata><path stroke-linejoin="round" d="m41.496,574.44h491.95c10.872,0,21.3-4.318,28.988-12.007,7.688-7.688,12.007-18.115,12.007-28.988v-491.94c0-10.873-4.319-21.3-12.007-28.988-7.69-7.689-18.12-12.008-28.99-12.008h-491.94c-10.873,0-21.3,4.319-28.988,12.007-7.689,7.688-12.008,18.116-12.008,28.989v491.95c0,10.873,4.319,21.3,12.007,28.988s18.116,12.007,28.989,12.007z" stroke="#000" stroke-linecap="round" fill="#FFF"/><path fill="#00F" d="m544.92,529.72c0,6.744-5.468,12.214-12.214,12.214h-490.05c-6.746,0-12.214-5.47-12.214-12.214v-488.55c0-6.746,5.468-12.214,12.214-12.214h490.05c6.746,0,12.214,5.469,12.214,12.214v488.55z" stroke="#000"/><path stroke-linejoin="round" d="m235.02,447.14v2.841h-68.979v-326.22h132.2c65.001,0,117.7,52.693,117.7,117.7,0,65.002-52.694,117.7-117.7,117.7h-63.212v87.997z" stroke="#00F" stroke-linecap="round" stroke-width="0.17640001" fill="none"/><path stroke-linejoin="round" d="m238.7,288.58v-86.777h38.406c24.271,0,43.945,19.675,43.945,43.946s-19.675,43.945-43.945,43.945c-12.81,0-25.617-0.371-38.406-1.114z" stroke="#00F" stroke-linecap="round" stroke-width="0.17640001" fill="none"/><path fill="#FFF" d="m415.93,241.45c0,65.001-52.694,117.7-117.7,117.7h-63.212v90.838h-68.978v-326.24h132.2c65,0,117.7,52.693,117.7,117.7zm-94.878,4.301c0-24.271-19.675-43.946-43.945-43.946h-38.406v86.777c12.789,0.743,25.596,1.114,38.406,1.114,24.27,0,43.945-19.675,43.945-43.945z"/><path fill="#2e66a8" d="m37.627,540.31c-1.5469-0.82961-3.3271-2.7422-4.3464-4.6697l-1.7263-3.2645,0.19275-247.47,0.19275-247.47,1.5939-2.1382c0.87663-1.176,2.7511-2.8198,4.1654-3.6529,2.5574-1.5064,3.9336-1.5147,250.6-1.5147h248.03l2.8584,1.7772c1.5721,0.97743,3.4466,2.8519,4.1654,4.1654,1.2302,2.248,1.307,16.941,1.307,250.18v247.79l-1.5843,2.1382c-0.87139,1.176-2.711,2.9051-4.0881,3.8423l-2.5038,1.704h-248.12c-240.23,0-248.2-0.0447-250.74-1.4051zm198.42-134.92,0-45.441,33.243,0c18.284,0,36.773-0.35657,41.086-0.79238,45.475-4.5943,84.092-34.78,99.423-77.717,7.8012-21.848,8.7792-48.012,2.632-70.419-11.19-40.787-44.003-72.997-84.724-83.168-13.567-3.3885-14.919-3.4403-89.722-3.4403h-71.614v163.21,163.21h34.838,34.838v-45.441z" transform="translate(-0.531,-0.531)"/><path fill="#2e66a8" d="m257.63,289.52c-8.3308-0.3055-15.743-0.60161-16.472-0.65803-1.2456-0.0964-1.3254-2.7022-1.3254-43.272v-43.169l20.638,0.0131c23.507,0.015,27.915,0.61389,36.921,5.0156,10.869,5.3127,19.953,16.883,22.737,28.963,1.2026,5.2169,1.2047,14.637,0.005,19.869-2.7491,11.983-11.916,23.597-22.742,28.81-9.7776,4.7089-15.305,5.3244-39.761,4.4276z" transform="translate(-0.531,-0.531)"/><path fill="#2e66a8" d="m165.04,29.176c67.792-0.10665,178.73-0.10665,246.52,0,67.792,0.10665,12.326,0.1939-123.26,0.1939-135.58,0-191.05-0.08726-123.26-0.1939z" transform="translate(-0.531,-0.531)"/><path fill="#2e66a8" d="m53.146,540.99c-8.3308-0.22885-15.569-0.68909-16.084-1.0227-0.51529-0.33366-2.0171-2.1767-3.3374-4.0957l-2.4005-3.489,0.44235-247.34c0.24329-136.04,0.66711-247.92,0.94182-248.63,0.27471-0.70711,1.7479-2.2407,3.2737-3.4081l2.7743-2.1224,114.36-0.46798c190.77-0.78067,379.91-0.73812,382.87,0.08613,1.4764,0.41015,3.862,1.9608,5.3014,3.4459l2.6171,2.7001,0.37867,247.8c0.21051,137.76,0.0889,248.74-0.27382,249.91-0.35887,1.1619-2.1971,3.2919-4.085,4.7334l-3.4325,2.6209-234.1-0.15192c-128.77-0.07-240.93-0.33-249.26-0.56zm182.9-135.51,0-45.353,37.678-0.41518c38.657-0.42597,42.236-0.68094,54.719-3.898,32.345-8.3361,60.3-31.017,75.477-61.235,9.0419-18.003,12.998-36.607,12.164-57.207-0.50772-12.548-2.0368-21.398-5.5152-31.921-14.53-43.956-53.7-75.656-99.108-80.207-5.323-0.53351-32.667-0.82919-76.682-0.82919h-68.409v163.21,163.21h34.838,34.838v-45.353z" transform="translate(-0.531,-0.531)"/><path fill="#2e66a8" d="m165.04,29.176c67.792-0.10665,178.73-0.10665,246.52,0,67.792,0.10665,12.326,0.1939-123.26,0.1939-135.58,0-191.05-0.08726-123.26-0.1939z" transform="translate(-0.531,-0.531)"/><path fill="#2e66a8" d="m40.123,30.437c0.78398-0.28766,5.0024-0.31365,52.825-0.32545l51.973-0.01283-45.346,0.13677c-25.432,0.07671-47.841,0.22558-51.026,0.33899-3.1241,0.11122-6.4895,0.19613-7.4788,0.18868l-1.7987-0.01354,0.85202-0.31262z" transform="translate(-0.531,-0.531)"/><path fill="#2e66a8" d="m34.064,34.465c0-0.39395,2.9223-2.9006,3.1344-2.6885,0.05207,0.05207-0.22716,0.33226-0.6205,0.62264s-1.1199,0.91678-1.6145,1.392c-0.49464,0.47521-0.89935,0.77845-0.89935,0.67388z" transform="translate(-0.531,-0.531)"/><path fill="#2e66a8" d="m31.93,72.497c0-18.718,0.01088-26.376,0.02418-17.017,0.0133,9.3592,0.0133,24.674,0,34.033-0.0133,9.3592-0.02418,1.7017-0.02418-17.017z" transform="translate(-0.531,-0.531)"/><path fill="#2e66a8" d="m31.505,87.053c0.000489-40.531,0.01798-46.338,0.14207-47.161,0.07783-0.51637,0.16278-0.96013,0.18878-0.98613s0.04727,21.196,0.04727,47.161c0,47.145-0.000253,47.208-0.18934,47.208-0.18908,0-0.18934-0.0629-0.18878-46.222z" transform="translate(-0.531,-0.531)"/><path fill="#2e66a8" d="m31.861,131.12-0.02176-2.1537-0.02738,2.1064c-0.01506,1.1585-0.06411,2.1064-0.10899,2.1064s-0.1121-2.1407-0.14938-4.7571c-0.07889-5.537,0.000382-87.862,0.0852-88.485,0.03139-0.2306,0.07784-0.44006,0.10324-0.46545,0.02539-0.02539,0.05218,2.3572,0.05953,5.2947,0.0073,2.9375,0.04162,7.8543,0.07615,10.926,0.05384,4.7894,0.06543,3.8846,0.08131-6.3481l0.01852-11.934,0.24492-0.32607c0.13471-0.17934,0.39573-0.56037,0.58005-0.84674s0.61727-0.83807,0.9621-1.226c0.34484-0.38792,0.57372-0.67296,0.50864-0.63343-0.07022,0.04266-0.11834,0.02313-0.11834-0.04804,0-0.15999,1.192-1.2763,2.1122-1.978,0.74964-0.57168,1.095-0.73319,0.7662-0.35834-0.1082,0.12336-0.12405,0.1724-0.03963,0.12258,0.29812-0.1759,1.3824-0.92683,1.5482-1.0722,0.21238-0.18624-0.01372-0.16682,2.4292-0.20873l2.0354-0.03492-1.7987-0.0505-1.7987-0.0505,0.52068-0.17515c0.44063-0.14822,1.0373-0.19004,3.8814-0.27201,3.0493-0.08789,164.04-0.12908,164.12-0.042,0.0174,0.01738,0.0316,21.211,0.0316,47.097v47.066l-20.74,0.0241c-11.407,0.0132-20.758,0.006-20.78-0.0153-0.0217-0.0217-0.0394,1.9699-0.0394,4.4258v4.4652h-67.262-67.262l-0.02176-2.1537zm12.921-100.4c-0.09211-0.024-0.21991-0.02242-0.28401,0.0035-0.06409,0.02593,0.01127,0.04557,0.16747,0.04364,0.1562-0.0019,0.20864-0.02315,0.11653-0.04715z" transform="translate(-0.531,-0.531)"/><path fill="#2e66a8" d="m90.223,30.113c21.595-0.01314,56.933-0.01314,78.528,0s3.9264,0.02389-39.264,0.02389-60.859-0.01075-39.264-0.02389z" transform="translate(-0.531,-0.531)"/><path fill="#2e66a8" d="m41.255,30.163c0.31434-0.07876,22.227-0.10961,83.592-0.1177l83.166-0.01096-81.888,0.06167c-45.039,0.03392-82.655,0.08688-83.592,0.1177-1.3677,0.04497-1.62,0.03496-1.278-0.05071z" transform="translate(-0.531,-0.531)"/><path fill="#2e66a8" d="m537.41,541.12c0-0.023,0.35062-0.2708,0.77915-0.55072,1.7946-1.1722,3.6087-2.7832,4.7113-4.1838,0.39033-0.4958,0.72618-0.88498,0.74633-0.86483,0.0686,0.0686-0.74868,1.3592-1.2989,2.0511-0.70381,0.88499-1.6613,1.76-2.6185,2.393-0.97988,0.64797-2.3194,1.3152-2.3194,1.1552z" transform="translate(-0.531,-0.531)"/><path fill="#2e66a8" d="m544.93,487.23c0-24.212,0.0108-34.102,0.0241-21.979,0.0132,12.123,0.0132,31.932,0,44.021-0.0132,12.088-0.0241,2.1696-0.0241-22.042z" transform="translate(-0.531,-0.531)"/><path fill="#2e66a8" d="m544.71,487.82c-0.01-36.697,0.0101-44.565,0.11224-44.565,0.1022,0,0.11993,7.7876,0.10049,44.139-0.0144,26.959-0.0581,44.305-0.11224,44.565-0.0556,0.26729-0.093-16.179-0.10049-44.139z" transform="translate(-0.531,-0.531)"/><path fill="#2e66a8" d="m395.12,541.81c0-0.063,23.43-0.0907,70.126-0.0828,38.569,0.007,69.934,0.046,69.7,0.0877-0.64772,0.11525-139.83,0.11044-139.83-0.005z" transform="translate(-0.531,-0.531)"/><path fill="#2e66a8" d="m404.73,541.8c-0.78102-0.0361-3.2625-0.0712-5.5144-0.0779l-4.0944-0.0122v-49.228-49.228h74.788,74.788l0.0174,0.97036,0.0174,0.97035,0.0536-0.75735c0.18809-2.6557,0.24374,33.42,0.10616,68.824-0.034,8.7474-0.0789,14.605-0.0997,13.017-0.0335-2.5514-0.044-2.2706-0.09,2.414l-0.0521,5.3014-0.51782,0.75201c-0.28479,0.4136-0.52594,0.80741-0.53588,0.87514-0.01,0.0677-0.1556,0.34703-0.32367,0.62069-1.3524,2.2019-3.3126,3.8883-5.6032,4.8204-0.361,0.14691-0.77647,0.35263-0.92327,0.45717-0.2612,0.18599-0.42638,0.1905-7.7311,0.21069-4.1053,0.0113-6.6122,0.0447-5.5708,0.074,1.0414,0.0294-24.924,0.0551-57.701,0.0573-32.777,0.002-60.233-0.0257-61.014-0.0618z" transform="translate(-0.531,-0.531)"/><path fill="#2e66a8" d="m544.93,515.96c0-8.2007,0.0112-11.556,0.0248-7.4552,0.0136,4.1003,0.0136,10.81,0,14.91-0.0137,4.1003-0.0248,0.74552-0.0248-7.4552z" transform="translate(-0.531,-0.531)"/><path fill="#2e66a8" d="m544.76,529.82c-0.0758-2.2638-0.0655-3.959,0.0287-4.7182,0.0411-0.3309,0.0763,0.9238,0.0844,3.0057,0.008,1.9656-0.00063,3.5738-0.0184,3.5738-0.0178,0-0.0604-0.83757-0.0947-1.8613z" transform="translate(-0.531,-0.531)"/><path fill="#2e66a8" d="m406.62,541.81c-3.4886-0.0361-7.5037-0.0716-8.9225-0.0789l-2.5797-0.0133v-49.228-49.228h74.788,74.788l0.0124,0.73368c0.009,0.53205,0.0294,0.64263,0.0743,0.40235,0.1212-0.64998,0.1973,10.25,0.1973,28.258,0,22.411-0.12304,58.56-0.19381,56.943-0.0364-0.8318-0.0575-0.35872-0.071,1.5924l-0.0192,2.7758-0.41255,0.58498c-0.22689,0.32174-0.56752,0.88318-0.75694,1.2477-0.48643,0.93595-1.4477,2.181-2.2946,2.9718-0.94771,0.88506-1.9737,1.5561-3.5414,2.3162l-1.278,0.61963-6.2481,0.0514c-9.7548,0.0802-116.44,0.12342-123.54,0.05z" transform="translate(-0.531,-0.531)"/><path fill="#2e66a8" d="m405.49,541.8c-3.7489-0.0344-7.6149-0.0687-8.5912-0.076l-1.775-0.0134v-49.228-49.228h74.788,74.788l0.007,0.59168c0.004,0.37749,0.0329,0.52466,0.0791,0.40655,0.15468-0.39545,0.19989,9.0424,0.17618,36.775-0.0272,31.801-0.0914,50.026-0.17339,49.228-0.0294-0.28638-0.0614,0.42953-0.071,1.5909l-0.0175,2.1116-0.36482,0.53915c-0.20064,0.29653-0.54512,0.85865-0.7655,1.2492-0.98579,1.7468-2.299,3.1915-3.8159,4.1982-0.42967,0.28514-1.3563,0.79629-2.0592,1.1359l-1.278,0.61741-12.402,0.10171c-13.252,0.10867-106.7,0.10896-118.53,0l0.00003,0.00036z" transform="translate(-0.531,-0.531)"/><path fill="#2e66a8" d="m544.93,524.29c0-3.827,0.0117-5.3926,0.026-3.4791s0.0143,5.0447,0,6.9582-0.026,0.34791-0.026-3.4791z" transform="translate(-0.531,-0.531)"/><path fill="#2e66a8" d="m395.12,542.42,0-0.5203,69.984-0.0361c40.501-0.0209,70.303-0.0719,70.741-0.12113,0.67811-0.0762,0.90844-0.16225,2.2015-0.82275,0.79427-0.40571,1.7741-0.98315,2.1774-1.2832,0.92748-0.69003,2.2202-2.0538,2.7532-2.9044,0.22583-0.36043,0.69196-1.1026,1.0358-1.6494l0.62522-0.99402,0.0681-0.94669c0.0375-0.52067,0.11352-1.4792,0.16904-2.13,0.0695-0.81545,0.10161-14.642,0.10308-44.471l0.002-43.287h0.47335,0.47334v43.524c0,30.131-0.0315,43.856-0.10146,44.604-0.28618,3.0552-1.6023,5.8035-3.7946,7.9234-2.1436,2.0729-4.7115,3.2571-7.6623,3.5335-0.75419,0.0707-21.904,0.10123-70.164,0.10145l-69.085,0.00033v-0.5203z" transform="translate(-0.531,-0.531)"/><path fill="#2e66a8" d="m544.7,239.68c0-55.434,0.0159-62.434,0.142-62.434,0.12608,0,0.142,7.0002,0.142,62.434s-0.0159,62.434-0.142,62.434c-0.12608,0-0.142-7.0002-0.142-62.434z" transform="translate(-0.531,-0.531)"/><path fill="#2e66a8" d="m544.57,94.971c-0.11234-30.235-0.28132-46.934-0.53814-53.18-0.0578-1.4058-0.0908-3.046-0.0733-3.6447l0.0318-1.0887,0.26711,0.778c0.14691,0.4279,0.35872,1.1734,0.47069,1.6567l0.20357,0.8787,0.0282,35.24c0.0276,34.544,0.0246,35.24-0.15136,35.24-0.17529,0-0.1809-0.37355-0.23852-15.881z" transform="translate(-0.531,-0.531)"/><path fill="#2e66a8" d="m542.39,34.731c-0.9232-1.0862-2.2797-2.2568-3.5227-3.0399-1.088-0.68548-1.3499-0.92696-0.5924-0.54621,1.2468,0.62666,2.296,1.3747,3.2093,2.288,0.612,0.612,1.6619,1.9418,1.5899,2.0137-0.0226,0.02255-0.3304-0.29948-0.68411-0.71563z" transform="translate(-0.531,-0.531)"/><path fill="#2e66a8" d="m395.12,70.368,0-40.484,50.34,0.06061c27.687,0.03333,59.449,0.08784,70.582,0.12113l20.242,0.06052,0.77414,0.4686c0.42578,0.25773,0.8641,0.47958,0.97403,0.49301,0.39798,0.04861,1.8427,0.9567,2.7726,1.7427,0.6103,0.51589,2.006,2.0954,1.9752,2.2353-0.0251,0.11364,0.50717,0.9249,0.8519,1.2985,0.15208,0.16483,0.2509,0.40702,0.28327,0.69424,0.0273,0.2426,0.0783,0.3949,0.11317,0.33843,0.13333-0.21573,0.78099,2.3747,0.86197,3.4476,0.0927,1.2275,0.11841,65.677,0.0273,68.194-0.0343,0.94556-0.097,1.7192-0.13948,1.7192-0.0425,0-0.0902-0.62836-0.10612-1.3964l-0.0289-1.3964-0.0209,1.4437-0.0209,1.4437h-74.741-74.741v-40.484zm149.46,24.935c-0.0148-1.3668-0.0269-0.24851-0.0269,2.4851s0.0121,3.8518,0.0269,2.4851c0.0148-1.3668,0.0148-3.6033,0-4.9701zm-0.5691-55.716c-0.0187-0.29735-0.0339-0.02942-0.0337,0.59539,0,0.62481,0.0155,0.8681,0.034,0.54064s0.0184-0.83868,0-1.136h-0.00034z" transform="translate(-0.531,-0.531)"/><path fill="#2e66a8" d="m527.27,30.093c-0.11064-0.0031-5.5156-0.01833-12.011-0.03378-6.4955-0.01546-13.402-0.03542-15.348-0.04437-2.065-0.0095,4.1681-0.01797,14.969-0.02036,12.571-0.0028,18.653,0.0038,18.962,0.02053,0.24982,0.01355,0.564,0.03874,0.69819,0.05598,0.20924,0.02688-0.2766,0.03108-3.4126,0.02951-2.0111-0.001-3.7471-0.0044-3.8578-0.0075z" transform="translate(-0.531,-0.531)"/><path fill="#2e66a8" d="m534.37,30.091c0.0819-0.0046,0.20967-0.0046,0.284,0.000085,0.0743,0.0047,0.007,0.0085-0.14884,0.0084-0.15621-0.000047-0.21703-0.0039-0.13516-0.0085z" transform="translate(-0.531,-0.531)"/><path fill="#2e66a8" d="m537.61,30.896c-0.11377-0.06058-0.2022-0.11478-0.19653-0.12045,0.006-0.0057,0.11117,0.02961,0.23445,0.07841,0.15769,0.06241,0.22046,0.09829,0.21175,0.121-0.0172,0.04471-0.0178,0.04451-0.24967-0.07896z" transform="translate(-0.531,-0.531)"/><path fill="#2e66a8" d="m31.938,44.092,0.01771-6.6777,0.31046-0.41742c0.33358-0.4485,0.41093-0.56097,0.60879-0.88516,0.14639-0.23985,0.43855-0.61047,0.81402-1.0326,0.14319-0.16098,0.33223-0.37341,0.42009-0.47207s0.15975-0.18761,0.15975-0.19768-0.0426,0.0034-0.09467,0.02999c-0.08977,0.04579-0.09467,0.04606-0.09467,0.0051,0-0.23062,1.2566-1.4313,2.353-2.2483,0.36947-0.27532,0.66952-0.44797,0.7349-0.42288,0.04955,0.01901,0.02604,0.06351-0.11856,0.22433-0.11977,0.13321-0.12087,0.15402-0.0035,0.06568,0.04144-0.03118,0.27237-0.18139,0.51318-0.33381s0.57995-0.38518,0.75363-0.51724c0.17368-0.13207,0.34645-0.25957,0.38394-0.28334,0.07345-0.04657,0.42095-0.05879,2.8454-0.10007,0.53099-0.009,0.9588-0.0231,0.95068-0.03125-0.0081-0.0081-0.72856-0.02546-1.601-0.03848l-1.5862-0.02367,0.4481-0.16096c0.48446-0.17402,0.663-0.21176,1.1898-0.2515,0.40798-0.03077,1.4935-0.07054,2.6271-0.09624,0.75549-0.01713,0.63931-0.01884-0.78102-0.01152-1.503,0.0077-1.6605,0.0051-1.5878-0.02712,0.10258-0.04541,3.2111-0.07202,10.374-0.08881l4.9169-0.01153v10.341,10.341h-12.286-12.286l0.01771-6.6777zm12.62-13.385c-0.02278-0.006-0.06006-0.006-0.08284,0s-0.0041,0.01082,0.04142,0.01082c0.04556,0,0.0642-0.0049,0.04142-0.01082z" transform="translate(-0.531,-0.531)"/><path fill="#2e66a8" d="m31.534,47.675c0.01827-3.7241,0.05348-6.7928,0.08443-7.3596,0.01598-0.29262,0.04782-0.55302,0.10756-0.87953,0.04667-0.25511,0.08768-0.46666,0.09113-0.47011,0.01915-0.01915,0.03767,3.6379,0.03769,7.4431l0.00002,4.3607h-0.16801-0.16801l0.01518-3.0945z" transform="translate(-0.531,-0.531)"/><path fill="#2e66a8" d="m31.938,41.315c-0.000001-1.5881,0.0028-2.2412,0.0063-1.4514,0.0035,0.78977,0.0035,2.0891,0.000001,2.8874-0.0035,0.7983-0.0063,0.15212-0.0063-1.4359z" transform="translate(-0.531,-0.531)"/><path fill="#2e66a8" d="m31.938,41.398c0-1.6336,0.0028-2.3019,0.0063-1.4851,0.0035,0.81681,0.0035,2.1534,0,2.9702-0.0035,0.81681-0.0063,0.14851-0.0063-1.4851z" transform="translate(-0.531,-0.531)"/><path fill="#2e66a8" d="m31.876,50.681c-0.0018-0.0643-0.02906-7.5282-0.0431-11.792-0.000107-0.03254,0.01999-0.12839,0.04466-0.213,0.04432-0.152,0.04487-0.08065,0.04654,5.97,0.0011,4.0679-0.0063,6.1239-0.02198,6.1239-0.01302,0-0.02477-0.03994-0.02612-0.08875z" transform="translate(-0.531,-0.531)"/><path fill="#2e66a8" d="m33.18,35.635c0-0.05061,0.65735-0.99647,0.83076-1.1954l0.07222-0.08284-0.01487,0.06817c-0.01565,0.07173-0.0042,0.07429,0.11458,0.0256,0.03796-0.01556,0.04067-0.01178,0.01927,0.0269-0.0137,0.02475-0.18132,0.22074-0.37251,0.43552-0.19118,0.21478-0.41163,0.46772-0.48988,0.5621-0.13462,0.16236-0.15958,0.18737-0.15958,0.15994z" transform="translate(-0.531,-0.531)"/><path fill="#2e66a8" d="m35.015,33.325c0.58466-0.5976,1.5382-1.3161,2.3896-1.8006,0.45664-0.25986,1.2764-0.65604,1.3029-0.62963,0.01959,0.01959-0.69251,0.52901-1.1857,0.84824-0.2792,0.1807-0.50763,0.32253-0.50763,0.31516,0-0.0074,0.0426-0.06179,0.09467-0.12094,0.1049-0.11917,0.11917-0.17189,0.04655-0.17189-0.14426,0-0.65961,0.34691-1.3127,0.88367-0.28232,0.23201-0.80079,0.68916-0.87344,0.77012-0.0248,0.02763-0.05641,0.05024-0.07026,0.05024s0.03839-0.06497,0.11609-0.14439z" transform="translate(-0.531,-0.531)"/><path fill="#2e66a8" d="m31.532,47.332c0.01826-3.858,0.05074-6.5211,0.08626-7.0745,0.02601-0.40515,0.22074-1.5504,0.27241-1.6021,0.0062-0.0062,0.01266,0.09437,0.01439,0.22345,0.0017,0.12908,0.01042,0.44238,0.0193,0.69621,0.01192,0.34063,0.01721,0.11843,0.02019-0.84835l0.004-1.3099,0.33485-0.45069c0.18417-0.24788,0.38831-0.53709,0.45366-0.64269s0.18373-0.28696,0.26308-0.40303,0.17622-0.27059,0.21527-0.34339c0.13236-0.24674,0.81784-1.2088,0.86129-1.2088,0.0101,0,0.05937-0.05955,0.1095-0.13234s0.23562-0.28175,0.41219-0.46436c0.17658-0.18261,0.3743-0.39088,0.43938-0.46283,0.26528-0.29323,0.803-0.73873,1.4023-1.1618,0.61892-0.43691,0.91636-0.61464,1.5916-0.95105,0.44477-0.22158,0.612-0.2943,0.63164-0.27466,0.0082,0.0082,0.02885,0.0032,0.04597-0.01097,0.03351-0.02781,0.75893-0.05154,2.5648-0.08389,1.1795-0.02113,1.1632-0.0468-0.0355-0.05604-0.42956-0.0033-1.0419-0.01254-1.3609-0.02052l-0.57985-0.0145,0.41158-0.14903c0.45568-0.165,0.59996-0.20276,0.91378-0.23917,0.2753-0.03194,1.0043-0.07136,1.7514-0.09472l0.59168-0.0185-0.92184-0.0037c-0.71954-0.0029-0.91557-0.01-0.89329-0.03226,0.01911-0.01911,0.18691-0.03443,0.50766-0.04635,0.48136-0.01789,9.9623-0.06607,13.135-0.06675l1.6981-0.00036v10.343,10.343h-12.283-12.283l-0.0052-0.51476-0.0052-0.51476-0.01271,0.50884c-0.0092,0.36834-0.01625,0.45656-0.02553,0.31951l-0.01283-0.18934-0.0048,0.19526-0.0048,0.19525h-0.16943-0.16943l0.01627-3.4377zm0.33928,2.8637c-0.0056-0.02929-0.01026-0.0053-0.01026,0.05325,0,0.05858,0.0046,0.08254,0.01026,0.05325,0.0056-0.02929,0.0056-0.07721,0-0.1065zm2.211-15.561c0.02944-0.03754,0.0286-0.03837-0.0089-0.0089-0.02278,0.01787-0.04142,0.0365-0.04142,0.04142,0,0.01948,0.01944,0.0069,0.05035-0.03248zm0.13898-0.17159c0.01399-0.02615,0.0156-0.04734,0.0036-0.04734-0.01196,0-0.02731,0.0213-0.03412,0.04734-0.0068,0.02603-0.0084,0.04733-0.0036,0.04733s0.02018-0.0213,0.03412-0.04733zm2.8874-2.4515c0-0.02153-0.10526,0.03372-0.11396,0.05982-0.0064,0.01905,0.01228,0.01515,0.05203-0.0109,0.03406-0.02232,0.06192-0.04433,0.06192-0.04892zm0.81242-0.52866c0.01527-0.01848-0.0175-0.0038-0.07282,0.03273-0.05532,0.03649-0.10058,0.07085-0.10058,0.07636,0,0.01707,0.14404-0.07355,0.17341-0.10909z" transform="translate(-0.531,-0.531)"/><path fill="#2e66a8" d="m38.884,30.817c0.29788-0.13917,1.1876-0.41279,1.7514-0.53861,0.4107-0.09165,0.53071-0.11055,0.51222-0.08063-0.02766,0.04476,0.14265,0.05425,0.77764,0.04337,0.61075-0.01047,0.61912-0.01003,0.18934,0.0098-1.1,0.0507-1.605,0.09051-1.846,0.1455-0.11662,0.02661-0.861,0.28664-0.92818,0.32424-0.0481,0.02692,0.63576,0.04999,1.5672,0.05287,0.42956,0.0013,0.83959,0.0096,0.91119,0.01846,0.12248,0.0151-0.51186,0.03223-2.3194,0.06264l-0.72185,0.01215,0.1065-0.04976z" transform="translate(-0.531,-0.531)"/><path fill="#2e66a8" d="m31.511,50.706c0.0057-0.03632,0.01635-1.7008,0.02374-3.6989,0.01425-3.8521,0.04439-6.2905,0.08426-6.8161,0.03168-0.41775,0.20344-1.412,0.26166-1.5147,0.01291-0.02278,0.02187,0.01964,0.025,0.11834,0.0084,0.26533,0.03718-0.36797,0.0407-0.89538l0.0032-0.4812,0.34836-0.47732c0.34525-0.47306,0.44124-0.61577,0.81457-1.211,0.38502-0.61387,0.67128-1.0158,1.0731-1.5067,0.24638-0.301,1.0645-1.1377,1.3513-1.3821,0.84865-0.72303,1.8129-1.3436,2.7719-1.784,0.31465-0.14448,0.36281-0.16082,0.4924-0.16706,0.05694-0.0027,0.06213-0.0069,0.0262-0.021-0.05223-0.0205,0.1955-0.12024,0.73115-0.29439,0.75908-0.24679,1.402-0.38832,1.9026-0.41884,0.39645-0.02417,8.6576-0.07026,12.623-0.07044l2.4081-0.000106v10.343,10.343h-12.283-12.283l-0.0043-0.19525-0.0043-0.19526-0.01341,0.18934-0.01341,0.18934-0.19485,0.0069-0.19485,0.0069,0.01031-0.06604zm10.409-19.904c-0.02929-0.0056-0.07721-0.0056-0.1065,0s-0.0053,0.01026,0.05325,0.01026c0.05858,0,0.08254-0.0046,0.05325-0.01026zm0.57985-0.56855c-0.04881-0.0051-0.12869-0.0051-0.1775,0s-0.0089,0.0093,0.08875,0.0093c0.09763,0,0.13757-0.0042,0.08875-0.0093z" transform="translate(-0.531,-0.531)"/><path fill="#2e66a8" d="m41.322,30.148c0.02449-0.02526,0.83372-0.11096,1.2662-0.13409,0.28364-0.01517,2.9337-0.02409,7.1771-0.02417,6.7117-0.000121,6.7274-0.000011,6.7274,0.04721,0,0.04709-0.01587,0.04734-3.0353,0.04761-3.7546,0.000338-11.507,0.03977-11.875,0.0604-0.1497,0.0084-0.26685,0.0097-0.26034,0.003z" transform="translate(-0.531,-0.531)"/><path fill="#2e66a8" d="m31.51,50.315c0.0072-0.25112,0.01885-1.8837,0.0259-3.628,0.01413-3.4963,0.04645-6.0116,0.08333-6.4848,0.02587-0.33197,0.08499-0.72715,0.17846-1.193,0.06747-0.33622,0.10043-0.42003,0.10792-0.27441,0.0076,0.14719,0.03757-0.5491,0.04129-0.95852l0.0033-0.36684,0.26258-0.35501c0.27031-0.36545,0.70082-1.0063,1.0255-1.5265,0.17882-0.28653,0.50184-0.75167,0.67423-0.97089,0.47451-0.60339,1.4024-1.5571,1.8846-1.9372,0.85039-0.67021,1.71-1.2048,2.5346-1.5763,0.28674-0.12917,0.3461-0.14917,0.45302-0.15261,0.03006-0.000967,0.04827-0.01209,0.04046-0.02471-0.01677-0.02713,0.06077-0.06104,0.45935-0.20086,0.68946-0.24186,1.5214-0.45314,1.9661-0.49932,0.08461-0.0088,0.16982-0.02436,0.18936-0.03461s0.30177-0.04304,0.62718-0.07287l0.59165-0.05423,6.8753-0.0013c6.4444-0.0013,7.4039,0.007,6.8043,0.05883l-0.16567,0.01431,0.15975,0.0042,0.15975,0.0042v10.343,10.343h-12.283-12.283l-0.0037-0.12425-0.0037-0.12425-0.01403,0.11834-0.01403,0.11834-0.19671,0.0069-0.19671,0.0069,0.01308-0.45657z" transform="translate(-0.531,-0.531)"/><path fill="#2e66a8" d="m31.476,318.37,0-15.609,0.13277,0,0.13277,0-0.01437,1.7336c-0.0079,0.9535-0.01977,7.522-0.02637,14.597-0.0066,7.0747-0.01867,13.318-0.02683,13.875l-0.01484,1.0118h-0.09156-0.09156v-15.608z" transform="translate(-0.531,-0.531)"/><path fill="#2e66a8" d="m42.399,541.93c-1.2157-0.0822-2.4721-0.37056-3.5974-0.82565-3.3138-1.3402-5.8617-4.159-6.8538-7.5825-0.05229-0.18044-0.09117-0.33197-0.0864-0.33674,0.0048-0.005,0.11577,0.14819,0.24666,0.3399,0.1673,0.24504,0.39318,0.6413,0.76048,1.3341,0.71636,1.3513,0.91717,1.683,1.4521,2.3988,0.40274,0.53892,0.71129,0.89315,1.2383,1.4216,0.75522,0.75732,1.3179,1.2045,2.0018,1.591,0.66295,0.37467,1.769,0.55945,4.2702,0.71338,2.6306,0.1619,7.2228,0.28873,13.449,0.37146l1.2129,0.0161v0.29215,0.29215l-6.9049-0.003c-3.7977-0.002-7.0327-0.012-7.1889-0.0226z" transform="translate(-0.531,-0.531)"/><path fill="#2e66a8" d="m44.103,541.93c-1.3278-0.01-2.0801-0.0243-2.2129-0.0426-1.8036-0.24888-3.1677-0.70426-4.6033-1.5367-1.2566-0.72869-2.4739-1.8016-3.3754-2.975-0.818-1.0648-1.4858-2.3418-1.8751-3.5856-0.17274-0.55193-0.18356-0.60332-0.10894-0.51738,0.04697,0.0541-0.07332-0.12746-0.42421-0.64027l-0.16865-0.24647v-3.6251c0-1.9938,0.0071-5.0806,0.01575-6.8596l0.01575-3.2345h12.563,12.563v11.644,11.644l-5.189-0.005c-2.854-0.003-6.0943-0.0119-7.2007-0.02zm-11.514-7.6193c-0.02656-0.0521-0.05362-0.0947-0.06013-0.0947-0.0065,0,0.0099,0.0426,0.03646,0.0947s0.05362,0.0947,0.06013,0.0947c0.0065,0-0.0099-0.0426-0.03646-0.0947zm-0.13283-0.24259c-0.0721-0.14305-0.26254-0.44376-0.28103-0.44376-0.0069,0,0.03937,0.0827,0.10273,0.18382,0.06336,0.1011,0.1382,0.2289,0.16631,0.28401,0.02811,0.0551,0.0564,0.10018,0.06286,0.10018,0.0065,0-0.01643-0.0559-0.05088-0.12425z" transform="translate(-0.531,-0.531)"/><path fill="#2e66a8" d="m43.771,541.93-1.7514-0.0148-0.41418-0.0642c-1.8861-0.29231-3.4325-0.87971-4.9011-1.8617-2.0134-1.3462-3.5525-3.2655-4.4403-5.5372-0.1269-0.32471-0.35734-1.0383-0.37831-1.1715-0.0171-0.10863-0.01321-0.10195-0.32058-0.55043l-0.23126-0.33743,0.000014-4.68c0.000008-2.574,0.0071-5.6625,0.01574-6.8633l0.01572-2.1833h12.563,12.563v11.644,11.644l-5.4849-0.005c-3.0167-0.003-6.273-0.0116-7.2362-0.0197zm-11.325-7.8802c-0.01393-0.026-0.03066-0.0473-0.03717-0.0473-0.0065,0-0.000434,0.0213,0.0135,0.0473,0.01393,0.026,0.03066,0.0473,0.03717,0.0473,0.0065,0,0.000434-0.0213-0.0135-0.0473zm-0.08042-0.13609c-0.01887-0.0358-0.05222-0.0864-0.07411-0.11242-0.03818-0.0454-0.03841-0.0449-0.0055,0.0118,0.01887,0.0325,0.047,0.0831,0.0625,0.11242,0.0155,0.0293,0.03341,0.0533,0.03979,0.0533,0.0064,0-0.0038-0.0293-0.0227-0.0651z" transform="translate(-0.531,-0.531)"/><path fill="#2e66a8" d="m56.499,541.66,0-0.29665,0.8816,0.0139c2.7306,0.043,13.022,0.12325,21.561,0.16809l2.8105,0.0148v0.19827,0.19828h-12.626-12.626v-0.29664z" transform="translate(-0.531,-0.531)"/><path fill="#2e66a8" d="m114.26,541.8,0-0.15747,9.2006,0.0154c5.0603,0.009,18.155,0.0224,29.099,0.0309l19.898,0.0155v0.12653,0.12654h-29.099-29.099v-0.15747z" transform="translate(-0.531,-0.531)"/><path fill="#2e66a8" d="m193.48,541.83,0-0.13411,17.839,0.0158c9.8115,0.009,22.906,0.0158,29.099,0.0158l11.26,0.00001v0.11833,0.11834h-29.099-29.099v-0.13411z" transform="translate(-0.531,-0.531)"/><path fill="#2e66a8" d="m315.18,541.84,0-0.11833,29.099,0,29.099,0,0,0.11833,0,0.11834-29.099,0-29.099,0,0-0.11834z" transform="translate(-0.531,-0.531)"/><path fill="#2e66a8" d="m373.38,541.84,0-0.11833,11.769,0.003c6.4727,0.002,12.423,0.0104,13.224,0.019l1.4555,0.0156-1.6212,0.008c-0.89166,0.004-1.8928,0.0145-2.2247,0.0224l-0.60351,0.0144,0.82835,0.0177c0.45559,0.01,5.0671,0.0257,10.248,0.0355l9.4195,0.0178-10.364,0.0118c-8.2619,0.009-10.366,0.0178-10.374,0.0414s-2.2055,0.0296-10.883,0.0296h-10.873v-0.11834z" transform="translate(-0.531,-0.531)"/><path fill="#2e66a8" d="m395.13,542.44,0-0.4911-18.733,0.007-18.733,0.007,0-0.12285,0-0.12285,20.028,0.009c11.016,0.005,19.363,0.003,18.549-0.005-0.81356-0.008-9.8263-0.0159-20.028-0.0178l-18.549-0.003v-11.514-11.514h29.099,29.099v11.597,11.597l-2.4791,0.006-2.4791,0.006,2.4791,0.006,2.4791,0.006v0.52067,0.52068h-10.366-10.366v-0.49109zm6.3838-0.543c-0.023-0.006-0.055-0.006-0.071,0.00088-0.016,0.006,0.003,0.0114,0.0419,0.0109,0.039-0.00048,0.0522-0.006,0.0291-0.0118zm5.1362-0.001c-0.93397-0.003-2.4623-0.003-3.3962,0-0.93397,0.003-0.16981,0.006,1.6981,0.006s2.6321-0.003,1.6981-0.006zm-6.6741-0.14196c-0.20502-0.004-0.5405-0.004-0.74552,0s-0.0373,0.007,0.37276,0.007c0.41003,0,0.57777-0.003,0.37276-0.007z" transform="translate(-0.531,-0.531)"/><path fill="#2e66a8" d="m395.12,542.44-0.006-0.48572-18.727,0.00081-18.727,0.0008,0-11.645,0-11.645,29.099,0,29.099,0,0,11.597,0,11.597-1.0354,0.006-1.0354,0.006,1.0354,0.006,1.0354,0.006,0,0.52067,0,0.52068-10.366,0-10.366,0-0.006-0.48572,0,0zm-20.307-0.73905c-1.1162-0.003-2.9427-0.003-4.0589,0s-0.20295,0.006,2.0295,0.006,3.1457-0.003,2.0295-0.006z" transform="translate(-0.531,-0.531)"/><path fill="#2e66a8" d="m504.62,530.8,0-12.129,20.129,0,20.129,0-0.009,6.183c-0.005,3.4007-0.00066,6.0393,0.0101,5.8636,0.0108-0.17573,0.0269-2.9581,0.0357-6.183l0.0161-5.8636h0.48449,0.48449l-0.0153,4.4672c-0.0207,6.0768-0.0455,8.0913-0.10551,8.5734-0.41125,3.306-1.9587,6.1472-4.4986,8.2595-1.7497,1.4552-3.7071,2.3579-5.9285,2.7343-0.72454,0.12274-0.85073,0.12993-2.6982,0.15377-1.4688,0.019-20.499,0.07-26.276,0.0705l-1.7573,0.00015v-12.129zm30.886,10.947c0.65145-0.0215-1.7419-0.0229-3.9524-0.002-1.6541,0.0154-1.6463,0.0155,0.89935,0.017,1.4123,0.00079,2.7862-0.006,3.0531-0.0146zm1.8026-0.45474c0.21915-0.10631,0.39485-0.19689,0.39045-0.20129-0.004-0.004-0.19344,0.0821-0.42008,0.19228-0.22665,0.11015-0.40235,0.20073-0.39045,0.20129,0.0119,0.00055,0.20094-0.086,0.42008-0.19228zm2.9697-1.7055c0.009-0.0148-0.0225,0.003-0.0703,0.0394s-0.0869,0.0711-0.0869,0.0769c0,0.0164,0.13844-0.086,0.15717-0.11632zm0.2215-0.17608c0-0.007-0.0426,0.0219-0.0947,0.0631s-0.0947,0.0803-0.0947,0.0868c0,0.007,0.0426-0.0219,0.0947-0.0631s0.0947-0.0803,0.0947-0.0868zm0.0947-0.067c0.0306-0.0325,0.0503-0.0592,0.0437-0.0592-0.007,0-0.0368,0.0266-0.0674,0.0592s-0.0503,0.0592-0.0438,0.0592c0.007,0,0.0369-0.0266,0.0674-0.0592zm0.14502-0.12425c0.0294-0.0375,0.0286-0.0384-0.009-0.009-0.0228,0.0179-0.0414,0.0365-0.0414,0.0414,0,0.0195,0.0194,0.007,0.0503-0.0325zm1.7247-1.781c0.0412-0.0521,0.0697-0.0947,0.0631-0.0947-0.006,0-0.0456,0.0426-0.0868,0.0947s-0.0697,0.0947-0.0632,0.0947c0.007,0,0.0456-0.0426,0.0868-0.0947zm0.12135-0.15976c0.0294-0.0375,0.0286-0.0384-0.009-0.009-0.0394,0.0309-0.052,0.0504-0.0325,0.0504,0.005,0,0.0236-0.0186,0.0414-0.0414zm0.23356-0.31533c0.0796-0.11619,0.13961-0.21126,0.13339-0.21126-0.006,0-0.0616,0.0719-0.12296,0.15975-0.0614,0.0879-0.13943,0.19703-0.17338,0.24259-0.0339,0.0456-0.0437,0.0687-0.0217,0.0515s0.1051-0.12639,0.18468-0.24259zm1.1616-1.8206c0.67629-1.0744,0.67909-1.0791,0.64233-1.0563-0.0525,0.0324-0.65797,0.96803-0.92871,1.435-0.14716,0.25383-0.28373,0.48813-0.30349,0.52067-0.0198,0.0326-0.0242,0.0485-0.01,0.0355,0.0144-0.013,0.28422-0.4337,0.59967-0.93485zm0.8134-3.1056c0.037-0.49289,0.0451-0.81589,0.0132-0.52728-0.009,0.0793-0.0184-0.17151-0.0217-0.56801-0.004-0.48298-0.0131-0.68732-0.0281-0.63902-0.0122,0.039-0.0266,0.65144-0.0321,1.3609-0.0103,1.3215-0.005,1.3518,0.0688,0.37345z" transform="translate(-0.531,-0.531)"/><path fill="#2e66a8" d="m543.79,535.38c0-0.013,0.0106-0.0302,0.0237-0.0383,0.013-0.008,0.0237-0.004,0.0237,0.009s-0.0107,0.0302-0.0237,0.0383c-0.013,0.008-0.0237,0.004-0.0237-0.009z" transform="translate(-0.531,-0.531)"/><path fill="#2e66a8" d="m504.62,531.75,0-11.186,20.129,0,20.129,0-0.00026,4.6188c-0.00024,2.5403,0.003,4.6225,0.008,4.627,0.0104,0.0104,0.0397-5.6975,0.0397-7.7251l0.00001-1.5206h0.4875,0.4875l-0.0154,3.6507c-0.0266,6.3127-0.0449,7.1828-0.16839,7.9699-0.55709,3.5525-2.5348,6.6111-5.5957,8.6541-1.7259,1.152-3.9443,1.8991-5.9286,1.9966-0.62266,0.0306-8.5777,0.064-20.194,0.0846l-9.3781,0.0167v-11.186zm29.915,9.9962c0.57148-0.01,0.0618-0.012-1.2189-0.005-1.2106,0.006-2.2055,0.0152-2.2109,0.02-0.0156,0.0138,2.3498,0.004,3.4298-0.0146zm2.8401-0.48553c0.0586-0.0314,0.0959-0.057,0.0828-0.057-0.013,0-0.0716,0.0257-0.13017,0.057-0.0586,0.0314-0.0959,0.057-0.0828,0.057,0.013,0,0.0716-0.0257,0.13017-0.057zm5.3518-4.1713c0.0294-0.0375,0.0286-0.0384-0.009-0.009-0.0394,0.0309-0.052,0.0503-0.0325,0.0503,0.005,0,0.0236-0.0186,0.0414-0.0414zm1.3768-2.1531c0.28376-0.44921,0.51177-0.8209,0.50669-0.82598-0.0141-0.0141-0.60018,0.88386-0.82055,1.2573-0.43606,0.73901-0.35546,0.62824,0.31386-0.43135zm0.67407-2.7637c0.0244-0.37274,0.008-1.8097-0.0193-1.7117-0.01,0.0348-0.0234,0.55669-0.0303,1.1597-0.0123,1.0715,0.004,1.2519,0.0497,0.55203zm0.0445-0.68043c-0.007-0.0163-0.0119-0.003-0.0119,0.0296,0,0.0325,0.005,0.0459,0.0119,0.0296,0.007-0.0163,0.007-0.0429,0-0.0592z" transform="translate(-0.531,-0.531)"/><path fill="#2e66a8" d="m544.66,294.55c0.009-30.552,0.01-30.842,0.0405-12.934,0.0299,17.308,0.0521,20.425,0.14572,20.425,0.0217,0,0.0458-0.35678,0.0536-0.79285,0.008-0.43607,0.019,4.9104,0.0248,11.881l0.0106,12.674h-0.142-0.142l0.009-31.253z" transform="translate(-0.531,-0.531)"/><path fill="#2e66a8" d="m544.72,206.07c0.017-15.106,0.0459-27.764,0.0642-28.128,0.0232-0.46284,0.0474-0.64127,0.0801-0.59168,0.0601,0.0911,0.10822,16.612,0.11429,39.205l0.005,16.981h-0.14704-0.14704l0.0309-27.466z" transform="translate(-0.531,-0.531)"/><path fill="#2e66a8" d="m543.46,36.153c-0.22194-0.25743-0.46537-0.68115-0.42883-0.74643,0.0294-0.05252,0.10396,0.03976,0.29028,0.35918,0.2379,0.40788,0.29577,0.56962,0.13855,0.38725z" transform="translate(-0.531,-0.531)"/><path fill="#2e66a8" d="m544.66,173.35-0.008-31.253,0.142,0,0.142,0-0.0106,18.425c-0.006,10.134-0.017,18.057-0.0248,17.608-0.008-0.44909-0.0326-0.81652-0.0553-0.81652-0.0885,0-0.10908,2.0856-0.14255,14.461-0.0292,10.808-0.036,7.9061-0.0427-18.425z" transform="translate(-0.531,-0.531)"/><path fill="#2e66a8" d="m544.7,235.7,0-31.241,0.14201,0,0.142,0,0,31.241,0,31.241-0.142,0-0.14201,0,0-31.241z" transform="translate(-0.531,-0.531)"/><path fill="#2e66a8" d="m475.83,235.7,0-31.241,34.578,0,34.578,0,0,31.241,0,31.241-34.578,0-34.578,0,0-31.241z" transform="translate(-0.531,-0.531)"/><path fill="#2e66a8" d="m475.83,48.194,0-18.243,29.004,0.02183c17.659,0.01329,29.197,0.03934,29.498,0.0666,0.27136,0.02462,0.82264,0.04477,1.2251,0.04477h0.73165l0.50862,0.30999c0.27973,0.1705,0.61242,0.3496,0.73931,0.39802,2.4082,0.91885,4.6864,2.92,5.9568,5.2325,0.10011,0.18224,0.24256,0.40131,0.31655,0.48682,0.0774,0.08946,0.13454,0.21067,0.13454,0.28544,0,0.07148,0.0761,0.31037,0.16909,0.53086,0.23014,0.54567,0.44935,1.2864,0.66496,2.2469l0.18062,0.80468,0.0156,13.029,0.0156,13.029h-34.58-34.58v-18.243z" transform="translate(-0.531,-0.531)"/><path fill="#2e66a8" d="m475.83,128.77,0-31.217,34.578,0,34.578,0,0,31.217,0,31.217-34.578,0-34.578,0,0-31.217z" transform="translate(-0.531,-0.531)"/><path fill="#2e66a8" d="m475.83,425.03,0-31.241,34.578,0,34.578,0,0,24.732,0,24.732,0.4733,0,0.4733,0,0.0119-24.744,0.0119-24.744,0.0118,31.253,0.0118,31.253-35.075,0-35.075,0,0-31.241z" transform="translate(-0.531,-0.531)"/><path fill="#2e66a8" d="m348.18,542.95,46.908-0.0481,0-0.47296,0-0.47297-46.861,0-46.861,0,0-79.238,0-79.238,121.84,0,121.84,0,0,29.821c0,29.679,0.002,29.821,0.37809,29.821,0.3761,0,0.37835-0.15786,0.42659-29.868,0.0267-16.427,0.0678,3.446,0.0915,44.163,0.0476,81.952,0.14577,75.369-1.1667,78.196-1.8758,4.0405-5.7128,6.7621-10.269,7.2841-1.1145,0.12768-40.292,0.17644-117.45,0.14619-63.679-0.025-94.671-0.067-68.872-0.0935z" transform="translate(-0.531,-0.531)"/><path fill="#2e66a8" d="m223.09,542.95,171.87-0.0475,0-0.47324,0-0.47324-171.82,0-171.82,0,0-79.238,0-79.238,57.653,0,57.653,0,0,33.513,0,33.513,34.459,0,34.459,0,0-33.513,0-33.513,140.68,0,140.68,0,0,79.806,0,79.806-232.84-0.0472c-216.92-0.044-221.09-0.0505-60.967-0.0948z" transform="translate(-0.531,-0.531)"/><path fill="#2e66a8" d="m261.39,290.04c-3.3282-0.0763-12.041-0.40666-17.372-0.65864l-4.7808-0.22597v-43.426-43.426l21.442,0.0638c19.401,0.0578,21.632,0.0956,23.431,0.39707,7.0089,1.1748,12.827,3.4799,18.366,7.2759,2.4002,1.6451,3.3144,2.4037,5.7451,4.7668,7.1271,6.9289,11.39,15.229,12.939,25.19,0.25414,1.6344,0.33589,3.2396,0.32787,6.4375-0.0116,4.6064-0.32663,7.2234-1.3221,10.982-2.4202,9.1372-8.0093,17.667-15.342,23.414-4.9356,3.8682-11.732,7.0828-17.692,8.3682-4.029,0.86892-5.7379,0.97583-14.913,0.93292-4.7589-0.0223-9.6323-0.063-10.83-0.0904z" transform="translate(-0.531,-0.531)"/></svg>
