<!-- Created with Inkscape (http://www.inkscape.org/) -->
<svg xmlns:rdf="http://www.w3.org/1999/02/22-rdf-syntax-ns#" xmlns="http://www.w3.org/2000/svg" xml:space="preserve" version="1.1" xmlns:cc="http://creativecommons.org/ns#" xmlns:dc="http://purl.org/dc/elements/1.1/" viewBox="0 0 87.931 90.958"><metadata><rdf:RDF><cc:Work rdf:about=""><dc:format>image/svg+xml</dc:format><dc:type rdf:resource="http://purl.org/dc/dcmitype/StillImage"/><dc:title/></cc:Work></rdf:RDF></metadata><defs><clipPath id="clipPath16" clipPathUnits="userSpaceOnUse"><path d="m0,72.767,70.345,0v-72.767h-70.345v72.767z"/></clipPath></defs><g transform="matrix(1.25,0,0,-1.25,0,90.95825)"><g clip-path="url(#clipPath16)"><g transform="translate(27.6348,72.7666)"><path fill-rule="nonzero" fill="#969696" d="m0,0c3.604,0,6.524-2.92,6.524-6.524,0-3.605-2.92-6.525-6.524-6.525s-6.523,2.92-6.523,6.525c0,3.604,2.919,6.524,6.523,6.524"/></g><g transform="translate(69.6934,15.6875)"><path fill-rule="nonzero" fill="#969696" d="m0,0-14.64,20.469c-0.765,1.073-2.044,1.58-3.343,1.468-0.097,0.01-0.193,0.017-0.292,0.017h-16.721l-0.417,3.642h12.431c1.445,0,2.618,1.173,2.618,2.617s-1.173,2.617-2.618,2.617h-13.026l-0.68,5.978c-0.398,3.498-3.556,6.009-7.052,5.612-3.497-0.399-6.009-3.558-5.61-7.053l1.922-16.884c0.371-3.265,3.147-5.668,6.359-5.65,0.009,0,0.02-0.003,0.032-0.003h21.881l12.555-17.554c1.199-1.676,3.65-1.98,5.472-0.675,1.822,1.304,2.329,3.721,1.129,5.399"/></g><g transform="translate(26.2686,25.627)"><path fill-rule="nonzero" fill="#969696" d="m0,0c-0.011,0-0.022,0.002-0.032,0.002-3.212-0.017-5.989,2.386-6.361,5.651l-1.92,16.882c-0.048,0.426-0.053,0.844-0.021,1.255-10.378-3.136-17.935-12.769-17.935-24.17,0-13.944,11.303-25.247,25.247-25.247,13.032,0,23.756,9.876,25.102,22.552l-2.199,3.075h-21.881z"/></g></g></g></svg>
