<?xml version="1.0" encoding="UTF-8" standalone="no"?>
<svg
   xmlns:dc="http://purl.org/dc/elements/1.1/"
   xmlns:cc="http://creativecommons.org/ns#"
   xmlns:rdf="http://www.w3.org/1999/02/22-rdf-syntax-ns#"
   xmlns:svg="http://www.w3.org/2000/svg"
   xmlns="http://www.w3.org/2000/svg"
   xmlns:sodipodi="http://sodipodi.sourceforge.net/DTD/sodipodi-0.dtd"
   xmlns:inkscape="http://www.inkscape.org/namespaces/inkscape"
   xml:space="preserve"
   version="1.1"
   viewBox="0 0 30 30"
   id="svg2"
   inkscape:version="0.48.4 r"
   width="100%"
   height="100%"
   sodipodi:docname="pmr_blanc.svg"><sodipodi:namedview
     pagecolor="#fff"
     bordercolor="#666666"
     borderopacity="1"
     objecttolerance="10"
     gridtolerance="10"
     guidetolerance="10"
     inkscape:pageopacity="0"
     inkscape:pageshadow="2"
     inkscape:window-width="1920"
     inkscape:window-height="1018"
     id="namedview27"
     showgrid="false"
     inkscape:zoom="2.68"
     inkscape:cx="33.656975"
     inkscape:cy="95.142557"
     inkscape:window-x="1912"
     inkscape:window-y="-8"
     inkscape:window-maximized="1"
     inkscape:current-layer="svg2"
     fit-margin-top="0"
     fit-margin-left="0"
     fit-margin-right="0"
     fit-margin-bottom="0"
     borderlayer="false" /><metadata
     id="metadata4"><rdf:RDF><cc:Work
         rdf:about=""><dc:format>image/svg+xml</dc:format><dc:type
           rdf:resource="http://purl.org/dc/dcmitype/StillImage" /><dc:title /></cc:Work></rdf:RDF></metadata><defs
     id="defs6"><clipPath
       id="clipPath16"
       clipPathUnits="userSpaceOnUse"><path
         d="m 0,72.767 70.345,0 V 0 H 0 v 72.767 z"
         id="path9"
         inkscape:connector-curvature="0" /></clipPath></defs><g
     transform="matrix(0.39481899,-0.01705322,-0.01354419,-0.37550367,1.7372989,29.567335)"
     id="g11"><g
       clip-path="url(#clipPath16)"
       id="g13"><g
         transform="translate(27.6348,72.7666)"
         id="g15"><path
           d="m 0,0 c 3.604,0 6.524,-2.92 6.524,-6.524 0,-3.605 -2.92,-6.525 -6.524,-6.525 -3.604,0 -6.523,2.92 -6.523,6.525 C -6.523,-2.92 -3.604,0 0,0"
           id="path17"
           inkscape:connector-curvature="0"
           style="fill:#000;fill-rule:nonzero" /></g><g
         transform="translate(69.6934,15.6875)"
         id="g19"><path
           d="m 0,0 -14.64,20.469 c -0.765,1.073 -2.044,1.58 -3.343,1.468 -0.097,0.01 -0.193,0.017 -0.292,0.017 h -16.721 l -0.417,3.642 h 12.431 c 1.445,0 2.618,1.173 2.618,2.617 0,1.444 -1.173,2.617 -2.618,2.617 h -13.026 l -0.68,5.978 c -0.398,3.498 -3.556,6.009 -7.052,5.612 -3.497,-0.399 -6.009,-3.558 -5.61,-7.053 l 1.922,-16.884 c 0.371,-3.265 3.147,-5.668 6.359,-5.65 0.009,0 0.02,-0.003 0.032,-0.003 h 21.881 L -6.601,-4.724 c 1.199,-1.676 3.65,-1.98 5.472,-0.675 C 0.693,-4.095 1.2,-1.678 0,0"
           id="path21"
           inkscape:connector-curvature="0"
           style="fill:#000;fill-rule:nonzero" /></g><g
         transform="translate(26.2686,25.627)"
         id="g23"><path
           d="m 0,0 c -0.011,0 -0.022,0.002 -0.032,0.002 -3.212,-0.017 -5.989,2.386 -6.361,5.651 l -1.92,16.882 c -0.048,0.426 -0.053,0.844 -0.021,1.255 -10.378,-3.136 -17.935,-12.769 -17.935,-24.17 0,-13.944 11.303,-25.247 25.247,-25.247 13.032,0 23.756,9.876 25.102,22.552 L 21.881,0 H 0 z"
           id="path25"
           inkscape:connector-curvature="0"
           style="fill:#000;fill-rule:nonzero" /></g></g></g></svg>