<svg xmlns="http://www.w3.org/2000/svg" height="100%" width="100%" version="1.1" viewBox="0 0 64 64" ><g transform="matrix(3.7037041,0,0,-3.3435658,48.629632,50.19573)" ><path d="M 0,0 C -0.495,0.002 -0.9,0.407 -0.9,0.908 -0.9,1.405 -0.495,1.81 0,1.81 0.503,1.81 0.908,1.405 0.91,0.908 0.908,0.407 0.503,0.002 0,0 m -4.557,4.114 -4.794,0 C -9.82,4.11 -9.918,4.447 -9.87,4.785 l 0.493,3.55 c 0.068,0.428 0.213,0.712 0.776,0.716 h 4.037 4.185 C 0.181,9.047 0.328,8.763 0.397,8.335 L 0.893,4.785 C 0.934,4.447 0.836,4.11 0.371,4.114 H -4.557 z M -8.989,0 c -0.495,0.002 -0.9,0.407 -0.9,0.908 0,0.497 0.405,0.902 0.9,0.902 0.503,0 0.906,-0.405 0.91,-0.902 C -8.083,0.407 -8.486,0.002 -8.989,0 m 1.81,10.639 2.622,0 2.756,0 c 0.526,0.002 0.526,-0.791 0,-0.793 h -2.763 -2.615 c -0.529,0.002 -0.529,0.795 0,0.793 M 1.403,9.511 c -0.173,0.883 -0.738,1.237 -1.587,1.588 -0.831,0.35 -2.83,0.762 -4.307,0.775 -1.478,-0.013 -3.477,-0.425 -4.313,-0.775 -0.844,-0.351 -1.407,-0.705 -1.579,-1.588 L -11.02,4.626 v -5.935 h 1.095 V -2.36 c -0.004,-1.291 1.88,-1.291 1.882,0 v 1.051 h 3.479 0.007 3.621 V -2.36 c -0.002,-1.291 1.884,-1.291 1.882,0 v 1.051 H 2.04 V 4.626 L 1.403,9.511 z" fill="#878a8b" fill-rule="nonzero" /></g></svg>