<svg version="1.1" xmlns="http://www.w3.org/2000/svg" xmlns:xlink="http://www.w3.org/1999/xlink" x="0px" y="0px"
	 width="100%" height="100%" viewBox="0 0 266.25 267.672" enable-background="new 0 0 266.25 267.672"
	 xml:space="preserve">
<path fill="#878a8b" d="M195.188,0.333c-26.981,0-50.453,15.035-62.484,37.184c-4.936-0.505-10.325-0.79-16.238-0.79h-40.23
	c-65.124,0-68.192,33.713-68.192,33.713L0,153.19v78.152h14.175v20.881c0,7.932,6.431,14.366,14.367,14.366
	c7.935,0,14.366-6.434,14.366-14.366v-20.881h106.883v20.881c0,7.932,6.433,14.366,14.366,14.366
	c7.938,0,14.366-6.434,14.366-14.366v-20.881h14.178V153.19l-1.06-10.905c1.181,0.058,2.348,0.18,3.547,0.18
	c39.247,0,71.063-31.819,71.063-71.066C266.25,32.15,234.434,0.333,195.188,0.333z M191.87,16.81c4.907,0,8.889,3.98,8.889,8.889
	c0,4.91-3.982,8.889-8.889,8.889c-4.912,0-8.889-3.979-8.889-8.889C182.98,20.79,186.958,16.81,191.87,16.81z M18.386,149.742
	L31.029,81.55h93.899c3.848,26.84,22.64,48.816,47.723,57.207l2.038,10.985H18.386z M188.287,115.575
	c-18.613,0-33.702-15.086-33.702-33.704c0-15.255,10.137-28.14,24.037-32.295l2.137,24.766c0,0,1.234,8.321,7.529,8.236
	c6.294-0.089,33.703-0.707,33.703-0.707C221.99,100.488,206.905,115.575,188.287,115.575z M244.298,102.713
	c-1.518,0-2.86,0.13-3.758-0.945l-16.076-21.365c0,0-24.858,0-31.44,0c-6.585,0-6.999-8.421-6.999-8.421s-2.955-25.006-2.977-25.169
	c0.328-5.862,3.722-6.892,7.919-6.892c4.211,0,7.623,3.704,7.924,8.301h0.036l-0.211,7.013l17.702-0.831
	c1.976,0.304,3.125,1.932,3.125,3.912c0,1.922-1.559,3.529-3.533,3.897l-18.326,0.027v8.968c0,0,22.663,0,27.107,0
	c4.444,0,5.598,0.864,5.598,0.864l18.093,22.333c0.453,0.748,0.731,2.029,0.731,2.967
	C249.213,100.089,247.014,102.713,244.298,102.713z"/>
</svg>
