<svg xmlns:rdf="http://www.w3.org/1999/02/22-rdf-syntax-ns#" xmlns="http://www.w3.org/2000/svg" color="#878a8b" viewBox="0 0 72 64" height="100%" width="100%" version="1.1" xmlns:cc="http://creativecommons.org/ns#" xmlns:dc="http://purl.org/dc/elements/1.1/"><metadata><rdf:RDF><cc:Work rdf:about=""><dc:format>image/svg+xml</dc:format><dc:type rdf:resource="http://purl.org/dc/dcmitype/StillImage"/><dc:title/></cc:Work></rdf:RDF></metadata><defs><clipPath id="clipPath12614" clipPathUnits="userSpaceOnUse"><path d="m279.78,356.88,291.4,0,0,210.33-291.4,0,0-210.33z"/></clipPath></defs><g transform="translate(10.838295,8.2395497)"><g transform="matrix(1.25,0,0,-1.25,-461.54367,575.3512)"><g clip-path="url(#clipPath12614)"><g transform="translate(417.1783,430.0286)"><path d="m0,0c0,6.164-5.14,11.148-11.446,11.148-6.333,0-11.466-4.984-11.466-11.148,0-6.165,5.133-11.156,11.466-11.156,6.306,0,11.446,4.991,11.446,11.156m-2.13,0c0-5.03-4.175-9.095-9.316-9.095-5.159,0-9.342,4.065-9.342,9.095,0,5.015,4.183,9.08,9.342,9.08,5.141,0,9.316-4.065,9.316-9.08m-12.239,20.312-7.184-0.016-4.727,7.223s-1.006,1.617-2.917,1.617-1.576,0.195-2.707-1.048l-9.102-8.878c-0.584-0.624-0.935-1.454-0.935-2.348,0-1.316,0.759-2.475,1.853-3.071l9.285-5.015v-9.452c0-1.338,1.11-2.418,2.483-2.418,1.375,0,2.487,1.08,2.487,2.418v11.799s0.328,1.882-1.873,2.909l-5.356,2.752,5.776,5.558,2.803-4.261c0.486-0.753,1.165-1.065,1.777-1.049h8.337c2.578,0,2.578,3.28,0,3.28m-4.199,11.078c0,2.308-1.933,4.198-4.305,4.198-2.379,0-4.317-1.89-4.317-4.198,0-2.317,1.938-4.19,4.317-4.19,2.372,0,4.305,1.873,4.305,4.19m-26.598-20.142c-6.306,0-11.448-4.982-11.448-11.139,0-6.166,5.142-11.158,11.448-11.158,6.333,0,11.465,4.992,11.465,11.158,0,6.157-5.132,11.139-11.465,11.139m9.343-11.139c0-5.03-4.184-9.103-9.343-9.103-5.142,0-9.324,4.073-9.324,9.103,0,5.014,4.182,9.088,9.324,9.088,5.159,0,9.343-4.074,9.343-9.088" fill="#878a8b" fill-rule="nonzero"/></g></g></g></g></svg>