<?xml version="1.0" encoding="UTF-8" standalone="no"?><svg xmlns="http://www.w3.org/2000/svg" version="1.1" viewBox="0 0 72 64" color="#878a8b"><g transform="translate(32.69222,20.917311)"><g transform="matrix(1.25,0,0,-1.25,-477.99259,561.84677)"><g transform="translate(410.6443,443.2463)"><path d="M0,0,0,0.438c0.2-0.047,0.407-0.077,0.629-0.077,1.222,0,2.22,0.723,2.22,1.612,0,0.895-0.998,1.614-2.22,1.614s-2.213-0.719-2.213-1.614c0-0.014,0.004-0.027,0.007-0.047-0.003-0.013-0.007-0.03-0.007-0.04v-1.124c-0.071,0.027-0.15,0.05-0.225,0.07-1.287,12.112-11.292,21.538-23.457,21.538-12.047,0-21.981-9.26-23.415-21.213v0.729,0.04,0.047c0,0.895-0.99,1.614-2.216,1.614-1.222,0-2.212-0.719-2.212-1.614,0-0.872,0.954-1.575,2.137-1.605-1.68-0.879-3.435-2.712-3.432-5.52v-14.314h4.579v-4.569c-0.01-5.633,8.583-5.567,8.58,0v4.569h15.468,15.428v-4.569c0.022-5.567,8.608-5.633,8.615,0v4.569h4.583v14.314c-0.018,2.463-1.373,4.18-2.849,5.152m-45.395-10.829c-2.199-0.006-3.976,1.688-3.968,3.78-0.008,2.105,1.769,3.8,3.968,3.783,2.187,0.017,3.96-1.678,3.96-3.783,0-2.092-1.78-3.786-3.96-3.78m1.823,11.774c0.722,10.046,8.322,16.906,18.306,16.906,9.991,0,17.591-6.86,18.313-16.906h-36.619zm37.412-12.212c-2.201-0.006-3.985,1.688-3.996,3.78,0.011,2.105,1.795,3.8,3.996,3.783,2.174,0.017,3.951-1.678,3.968-3.783-0.017-2.092-1.794-3.786-3.968-3.78" fill-rule="nonzero" fill="#878a8b"/></g></g></g></svg> 